<svg width="44" height="44" fill="none" xmlns="http://www.w3.org/2000/svg"><path d="M17.243 5.314c-6.596 0-11.91 5.375-11.91 11.91 0 6.598 5.375 11.912 11.91 11.912 6.597 0 11.911-5.375 11.911-11.911a11.887 11.887 0 00-11.91-11.911zm0 21.379c-3.848 0-7.146-2.322-8.673-5.62h2.81c.671 0 1.221-.55 1.221-1.222 0-.671-.55-1.221-1.222-1.221H7.838c-.061-.489-.122-.977-.122-1.466s.06-.916.122-1.405h6.169c.672 0 1.222-.55 1.222-1.222 0-.672-.55-1.221-1.222-1.221H8.57c1.466-3.299 4.825-5.68 8.673-5.68 5.253 0 9.468 4.275 9.468 9.467 0 5.375-4.215 9.59-9.468 9.59z" fill="#D2B385"/><path d="M42.47 35l-9.895-9.896a17.053 17.053 0 001.893-7.88C34.468 7.758 26.772 0 17.243 0 7.715 0 .02 7.696.02 17.225c0 9.467 7.696 17.225 17.224 17.225 2.81 0 5.498-.672 7.88-1.894l9.895 9.896c3.298 2.931 6.475.977 7.452 0 2.016-2.077 2.016-5.437 0-7.452zm-25.227-2.993c-8.123 0-14.781-6.658-14.781-14.782C2.462 9.1 9.12 2.443 17.243 2.443c8.124 0 14.782 6.658 14.782 14.782 0 8.124-6.658 14.782-14.782 14.782zM40.7 40.68c-.55.55-2.2 1.527-3.97 0l-9.468-9.468a17.495 17.495 0 003.97-3.97L40.7 36.71a2.8 2.8 0 010 3.97z" fill="#282A40"/></svg>