<svg width="20" height="20" fill="none" xmlns="http://www.w3.org/2000/svg"><g clip-path="url(#clip0)"><path d="M8.073 10.003l7.482-7.482c.206-.206.32-.48.32-.773 0-.294-.114-.568-.32-.774L14.9.319a1.085 1.085 0 00-.774-.32c-.293 0-.568.114-.774.32L4.444 9.227c-.207.206-.32.482-.319.776 0 .294.112.57.319.777l8.9 8.9c.206.206.48.319.774.319.293 0 .567-.113.774-.32l.655-.655a1.095 1.095 0 000-1.547l-7.474-7.474z" fill="#494C67"/></g><defs><clipPath id="clip0"><path fill="#fff" d="M0-.001h20v20H0z"/></clipPath></defs></svg>