<svg width="20" height="20" fill="none" xmlns="http://www.w3.org/2000/svg"><g clip-path="url(#clip0)"><path d="M11.927 10.003L4.445 2.521a1.085 1.085 0 01-.32-.773c0-.294.114-.568.32-.774L5.1.319c.206-.206.481-.32.774-.32.293 0 .568.114.774.32l8.908 8.908c.207.206.32.482.319.776 0 .294-.112.57-.319.777l-8.9 8.9c-.206.206-.48.319-.774.319-.293 0-.567-.113-.774-.32l-.655-.655a1.095 1.095 0 010-1.547l7.474-7.474z" fill="#494C67"/></g><defs><clipPath id="clip0"><path transform="matrix(-1 0 0 1 20 -.001)" fill="#fff" d="M0 0h20v20H0z"/></clipPath></defs></svg>