<svg width="20" height="20" fill="none" xmlns="http://www.w3.org/2000/svg"><path d="M19.196 5.424a6.998 6.998 0 00-2.22-2.617C15.266 1.571 12.853.918 10 .918c-2.853 0-5.266.653-6.976 1.889a6.997 6.997 0 00-2.22 2.617C.27 6.515 0 7.785 0 9.2c0 3.058 1.261 5.398 3.657 6.805-.332 1.169-.762 1.877-.765 1.884L2.15 19.08l1.405.002h.016c.443 0 2.477-.096 4.13-1.754.73.101 1.5.152 2.299.152 2.853 0 5.266-.653 6.976-1.889a6.998 6.998 0 002.22-2.617c.534-1.09.804-2.36.804-3.775 0-1.414-.27-2.684-.804-3.775zm-3.135 8.9c-1.442 1.043-3.538 1.594-6.061 1.594-.867 0-1.694-.066-2.458-.196l-.435-.074-.288.335a4.382 4.382 0 01-1.939 1.306c.157-.425.317-.934.445-1.515l.133-.598-.55-.272C2.688 13.81 1.562 11.89 1.562 9.2c0-2.262.8-3.986 2.377-5.125C5.38 3.03 7.477 2.48 10 2.48s4.619.551 6.061 1.594c1.577 1.139 2.377 2.863 2.377 5.125s-.8 3.986-2.377 5.126z" fill="#C2C3D4"/></svg>