<svg width="44" height="44" fill="none" xmlns="http://www.w3.org/2000/svg"><g clip-path="url(#clip0)"><path d="M25.404 35.209h-3.542a1.22 1.22 0 00-1.221 1.22 1.22 1.22 0 001.22 1.222h3.543a1.22 1.22 0 001.222-1.221 1.22 1.22 0 00-1.222-1.221z" fill="#D2B385"/><path d="M42.91 12.611L31.39 1.091a3.733 3.733 0 00-5.275 0L6.955 20.268h-3.23A3.73 3.73 0 000 23.992v16.284A3.73 3.73 0 003.725 44H30.09a3.73 3.73 0 003.725-3.724V26.972l9.086-9.086a3.725 3.725 0 00.008-5.275zM27.846 2.824a1.286 1.286 0 011.819 0l1.992 1.992-15.443 15.452h-5.812L27.847 2.824zM2.443 23.992c0-.71.572-1.282 1.282-1.282H30.09c.71 0 1.282.572 1.282 1.282v2.824H2.443v-2.824zm28.938 16.292a1.28 1.28 0 01-1.282 1.282H3.725a1.28 1.28 0 01-1.282-1.282V29.258h28.938v11.026zm9.804-24.122l-7.388 7.388a3.735 3.735 0 00-3.698-3.282h-10.42L33.39 6.548l7.795 7.795a1.302 1.302 0 010 1.82z" fill="#282A40"/></g><defs><clipPath id="clip0"><path fill="#fff" d="M0 0h44v44H0z"/></clipPath></defs></svg>