<svg width="40" height="40" fill="none" xmlns="http://www.w3.org/2000/svg"><path d="M36.785 5.983h-6.66A4.101 4.101 0 0026.48 0c-1.544 0-4.78 2.433-6.487 4.676-1.7-2.236-4.944-4.668-6.48-4.668a4.109 4.109 0 00-4.101 4.101 4.1 4.1 0 00.457 1.882h-6.66A3.202 3.202 0 00.003 9.195v27.593A3.214 3.214 0 003.208 40h33.577a3.215 3.215 0 003.212-3.212V9.195a3.215 3.215 0 00-3.212-3.212zm-20.122 31.79H3.208a.98.98 0 01-.984-.985V14.753h14.439v23.02zm0-25.24H2.224V9.195c0-.543.441-.992.984-.992h13.455v4.33zm-3.157-6.55a1.878 1.878 0 010-3.755c.897.055 3.495 2.236 4.723 3.755h-4.723zM21.11 37.78h-2.22V8.211h2.22V37.78zm5.377-35.552a1.882 1.882 0 010 3.763h-4.715C23 4.464 25.598 2.283 26.487 2.228zm11.29 34.56a.993.993 0 01-.992.992H23.33V14.753h14.445v22.035zm0-24.255H23.33v-4.33h13.455c.543.008.992.449.992.992v3.338z" fill="#D2B385"/></svg>