<svg width="20" height="20" fill="none" xmlns="http://www.w3.org/2000/svg"><path d="M10 4.3a3.717 3.717 0 00-3.713 3.712A3.717 3.717 0 0010 11.725a3.717 3.717 0 003.713-3.713A3.717 3.717 0 0010 4.3zm0 5.862a2.152 2.152 0 01-2.15-2.15c0-1.185.965-2.15 2.15-2.15s2.15.965 2.15 2.15c0 1.186-.965 2.15-2.15 2.15z" fill="#C2C3D4"/><path d="M10 0C5.582 0 1.988 3.594 1.988 8.012v.222c0 2.234 1.28 4.838 3.807 7.739a32.931 32.931 0 003.714 3.63L10 20l.491-.397a32.925 32.925 0 003.714-3.63c2.526-2.901 3.807-5.505 3.807-7.74v-.22C18.012 3.593 14.418 0 10 0zm6.449 8.234c0 3.776-4.865 8.347-6.449 9.734-1.584-1.388-6.449-5.959-6.449-9.734v-.222a6.456 6.456 0 016.45-6.449 6.456 6.456 0 016.448 6.45v.22z" fill="#C2C3D4"/></svg>