<svg width="50" height="50" fill="none" xmlns="http://www.w3.org/2000/svg"><circle cx="25" cy="25" r="25" fill="#D2B385"/><path d="M33.773 17.227A10.946 10.946 0 0025.983 14c-2.944 0-5.71 1.146-7.791 3.227a10.946 10.946 0 00-3.227 7.79c0 1.865.472 3.697 1.367 5.32L14 37l6.663-2.332a11.013 11.013 0 005.32 1.367c2.942 0 5.709-1.146 7.79-3.227A10.945 10.945 0 0037 25.018c0-2.943-1.146-5.71-3.227-7.791zm-2.344 11.884l-1.272 1.272c-1.054 1.053-4.043-.228-6.678-2.862-2.634-2.635-3.915-5.624-2.862-6.678l1.272-1.272a.675.675 0 01.954 0l1.59 1.59a.674.674 0 010 .954l-.954.954a9.36 9.36 0 004.452 4.452l.954-.954a.675.675 0 01.954 0l1.59 1.59a.675.675 0 010 .954z" fill="#fff"/></svg>